<svg xmlns="http://www.w3.org/2000/svg" xml:space="preserve" id="ai-search" x="0" y="0" style="enable-background:new 0 0 100 100" version="1.1" viewBox="0 0 100 100">
  <path d="M40.3299141 17.2120533c0 .8254967.4496689 1.5848637 1.1737671 1.9805279l7.5286484 4.1175575 4.1164551 7.5286465c.3956642.7229977 1.1550331 1.173769 1.980526 1.173769.8254967 0 1.5848618-.4496689 1.9805298-1.173769l4.1175537-7.5286465 7.5286484-4.1175575c.7240982-.3956642 1.1737671-1.1550312 1.1737671-1.9805279 0-.8254948-.4496689-1.5848618-1.1737671-1.980526l-7.5286484-4.1175566-4.1175537-7.5286484c-.7913322-1.4481983-3.1697273-1.4459941-3.9610558 0l-4.1164551 7.5286484-7.5286484 4.1175566C40.779583 15.6271915 40.3299141 16.3865585 40.3299141 17.2120533zM51.7788391 14.7576113c.3780289-.2072001.68993-.5191031.8971329-.8971338l2.4533386-4.4878721 2.4544449 4.4878721c.2071991.3780308.519104.6899338.8971329.8971338l4.4878731 2.454442-4.4878731 2.454443c-.3780289.207201-.6899338.519104-.8971329.8971348l-2.4544449 4.4878712-2.4533386-4.4878712c-.2072029-.3780308-.519104-.6899338-.8971329-.8971348l-4.4878731-2.454443L51.7788391 14.7576113zM56.3074875 79.6939926l-6.0154228-3.2909622-3.289856-6.015419c-.7913322-1.4504089-3.1697273-1.4504089-3.9610558 0l-3.289856 6.015419-6.0154266 3.2909622c-.7240982.3945618-1.1737671 1.1550293-1.1737671 1.9794235s.4507713 1.5848618 1.1737671 1.9794235l6.0154266 3.2909622 3.289856 6.0132217c.3956642.7251968 1.1550331 1.1748657 1.980526 1.1748657.8254967 0 1.5848656-.4496689 1.9805298-1.1748657l3.289856-6.0132217 6.0154228-3.2909622c.7229996-.3945618 1.1737709-1.1550293 1.1737709-1.9794235S57.0315895 80.0885544 56.3074875 79.6939926zM47.5455589 83.3001633c-.3780327.2071991-.6899338.5179977-.8971367.8971329l-1.6267433 2.9735413-1.6267433-2.9735413c-.2071991-.3791351-.519104-.6899338-.8971329-.8971329l-2.9746475-1.6267471 2.9746475-1.6289444c.3780289-.2071991.6899338-.5180054.8971329-.8971329l1.6267433-2.9735489 1.6267433 2.9735489c.2072029.3791275.519104.6899338.8971367.8971329l2.9746475 1.6289444L47.5455589 83.3001633z"></path>
  <path d="M93.871376,83.2340317L69.2608185,58.625679c-0.8817062-0.8817024-2.3100662-0.8817024-3.1917648,0l-2.8023033,2.8023033
	l-5.0367355-5.0360451c5.837429-6.7345619,8.5070686-15.5048981,7.2813606-24.4477158
	c-0.1708298-1.235487-1.3236618-2.1006584-2.542614-1.9298286c-1.2354889,0.1697273-2.0995598,1.307127-1.9298286,2.542614
	c1.1351929,8.286911-1.6002922,16.4250374-7.5055046,22.3302498c-4.9981575,4.9992599-11.6451035,7.7523804-18.7141647,7.7523804
	S21.10326,59.8865166,16.1051025,54.8872566c-10.3192406-10.3192406-10.3192406-27.1101875,0-37.4294281
	c6.5631828-6.5620794,16.2354736-9.2215185,25.2486916-6.9368038c1.2101364,0.3108006,2.4357033-0.4243202,2.7420959-1.6333561
	c0.3063927-1.2079344-0.4243202-2.4357066-1.6333542-2.7420988c-10.5429745-2.6726646-21.8651524,0.4375453-29.549202,8.120492
	c-12.0793419,12.0793419-12.0793419,31.7336216,0,43.8129654c5.8512068,5.8523064,13.6300383,9.0749359,21.9059296,9.0749359
	c7.5162506,0,14.6074905-2.6834106,20.2326241-7.5567551l5.0230942,5.0225449l-2.8031311,2.8031311
	c-0.8817024,0.8816986-0.8817024,2.3100586,0,3.1917648l24.6094589,24.6105576
	C83.3978348,96.7417374,85.3882828,97.5,87.3809357,97.5c1.9915466,0,3.9841995-0.7582626,5.5007248-2.2747955l0.9897156-0.9919205
	C96.9044342,91.2002258,96.9044342,86.2670975,93.871376,83.2340317z M90.6796112,91.0415192h-0.0011063l-0.9897079,0.9919205
	c-1.2740631,1.2740555-3.3438644,1.2740555-4.6157227,0l-23.0135727-23.014679l5.6054306-5.6054268l23.014679,23.0124702
	C91.9514694,87.6976547,91.9514694,89.7696609,90.6796112,91.0415192z"></path>
</svg>
